<?xml version="1.0" encoding="UTF-8" standalone="no"?>
<!-- Created with Inkscape (http://www.inkscape.org/) -->

<svg
   xmlns:dc="http://purl.org/dc/elements/1.1/"
   xmlns:cc="http://creativecommons.org/ns#"
   xmlns:rdf="http://www.w3.org/1999/02/22-rdf-syntax-ns#"
   xmlns:svg="http://www.w3.org/2000/svg"
   xmlns="http://www.w3.org/2000/svg"
   xmlns:sodipodi="http://sodipodi.sourceforge.net/DTD/sodipodi-0.dtd"
   xmlns:inkscape="http://www.inkscape.org/namespaces/inkscape"
   width="466.27203mm"
   height="84.306793mm"
   viewBox="0 0 1652.145 298.72486"
   id="svg2"
   version="1.1"
   inkscape:version="0.91 r13725"
   sodipodi:docname="subway-explorer-logo-new.svg"
   inkscape:export-filename="/home/alex/Desktop/subway-explorer-logo.svg.png"
   inkscape:export-xdpi="90"
   inkscape:export-ydpi="90">
  <defs
     id="defs4" />
  <sodipodi:namedview
     id="base"
     pagecolor="#ffffff"
     bordercolor="#666666"
     borderopacity="1.0"
     inkscape:pageopacity="0.0"
     inkscape:pageshadow="2"
     inkscape:zoom="0.49497475"
     inkscape:cx="887.06229"
     inkscape:cy="379.12824"
     inkscape:document-units="px"
     inkscape:current-layer="g3520"
     showgrid="false"
     fit-margin-top="0"
     fit-margin-left="0"
     fit-margin-right="0"
     fit-margin-bottom="0"
     inkscape:window-width="1855"
     inkscape:window-height="1056"
     inkscape:window-x="65"
     inkscape:window-y="24"
     inkscape:window-maximized="1" />
  <metadata
     id="metadata7">
    <rdf:RDF>
      <cc:Work
         rdf:about="">
        <dc:format>image/svg+xml</dc:format>
        <dc:type
           rdf:resource="http://purl.org/dc/dcmitype/StillImage" />
        <dc:title></dc:title>
      </cc:Work>
    </rdf:RDF>
  </metadata>
  <g
     inkscape:label="Layer 1"
     inkscape:groupmode="layer"
     id="layer1"
     transform="translate(-155.3605,-339.51335)">
    <g
       id="g3570"
       transform="matrix(1.1876267,0,0,1.1876267,15.959449,208.18964)">
      <g
         id="g3516"
         transform="translate(0,-540.36)">
        <g
           id="g3518">
          <g
             id="g3520">
            <path
               id="path3526"
               d="m 300.61289,698.26297 0,0 -115.37738,0 c -11.39339,0 -20.67307,9.48589 -20.67307,21.0855 l 0,136.41133 c 0,11.23872 9.4859,20.67303 20.67307,20.67303 l 6.85666,0 -10.87785,18.2501 c -1.44351,2.423 -0.6702,5.6193 1.80438,7.0628 0.82486,0.5156 1.75283,0.7218 2.62924,0.7218 1.75283,0 3.45411,-0.8764 4.43363,-2.5261 l 14.02263,-23.5086 78.05243,0 14.02263,23.5086 c 0.97953,1.5981 2.6808,2.5261 4.43363,2.5261 0.87641,0 1.80438,-0.2578 2.62924,-0.7218 2.42303,-1.4435 3.24789,-4.6398 1.80439,-7.0628 l -10.87785,-18.2501 6.44422,0 c 11.65116,0 21.0855,-9.27965 21.0855,-20.67303 l 0,-136.35978 c 0,-11.65116 -9.43434,-21.13705 -21.0855,-21.13705 z m -11.08406,10.31075 -92.84838,0 z m -14.2804,89.60049 -64.5969,0 z m 36.1392,57.63714 c 0,5.61936 -4.94916,10.36231 -10.77474,10.36231 l -115.37738,0 c -5.51625,0 -10.36231,-4.84605 -10.36231,-10.36231 l 0,-136.41133 c 0,-5.87713 4.74295,-10.77474 10.36231,-10.77474 l 1.03108,0 14.84749,95.52917 c 0.41243,2.52614 2.57769,4.38207 5.10382,4.38207 l 73.4126,0 c 2.52613,0 4.69139,-1.85593 5.10382,-4.33051 l 15.25992,-95.58073 0.61865,0 c 5.92869,0 10.77474,4.84605 10.77474,10.77474 z"
               inkscape:connector-curvature="0"
               style="fill:#000000;fill-opacity:1"
               sodipodi:nodetypes="ccsssscccsccccscccssscccccccssssssccssccsss"
               inkscape:export-xdpi="90"
               inkscape:export-ydpi="90" />
            <path
               id="path3528"
               d="m 368.50923,765.95309 c -2.7839,-31.39626 -17.16741,-60.47259 -40.41817,-81.86742 -23.0961,-21.34327 -53.20351,-33.14908 -84.75443,-33.14908 -31.60247,0 -61.76144,11.75426 -85.06375,33.14908 -23.30231,21.39483 -37.63427,50.47116 -40.41817,81.91898 -2.73235,31.44781 6.34111,62.53474 25.57068,87.48678 1.70127,2.26837 4.94916,2.6808 7.21753,0.92797 2.26836,-1.70128 2.68079,-4.94917 0.92797,-7.21753 -36.80941,-47.73881 -30.93228,-114.60408 13.66175,-155.53779 43.92383,-40.31506 112.33571,-40.31506 155.84711,0 44.54247,40.98526 50.4196,107.85053 13.66175,155.53779 -1.75283,2.21681 -1.3404,5.4647 0.92797,7.21753 0.92797,0.72175 2.06215,1.08263 3.14478,1.08263 1.54661,0 3.04167,-0.6702 4.1243,-2.06215 19.28112,-24.95204 28.35459,-56.03897 25.57068,-87.48679 z"
               inkscape:connector-curvature="0"
               style="fill:#0039a6;fill-opacity:1"
               inkscape:export-xdpi="90"
               inkscape:export-ydpi="90" />
            <text
               xml:space="preserve"
               style="font-style:normal;font-weight:normal;font-size:87.38072968px;line-height:100%;font-family:sans-serif;letter-spacing:0px;word-spacing:0px;fill:#000000;fill-opacity:1;stroke:none;stroke-width:1px;stroke-linecap:butt;stroke-linejoin:miter;stroke-opacity:1"
               x="418.6174"
               y="828.12732"
               id="text3607"
               sodipodi:linespacing="100%"
               inkscape:export-xdpi="90"
               inkscape:export-ydpi="90"><tspan
                 sodipodi:role="line"
                 x="418.6174"
                 y="828.12732"
                 id="tspan3611"
                 style="font-style:normal;font-variant:normal;font-weight:normal;font-stretch:normal;font-size:147.35270691px;line-height:100%;font-family:'Trebuchet MS';-inkscape-font-specification:'Trebuchet MS'">Subway Explorer</tspan></text>
          </g>
          <path
             style="opacity:1;fill:#ffffff;fill-opacity:1;stroke:#ffffff;stroke-width:3.47272682;stroke-miterlimit:4;stroke-dasharray:none"
             d="m 182.72218,865.2233 c -1.47362,-0.4349 -3.64418,-1.81767 -4.82347,-3.07283 l -2.14417,-2.2821 -0.23437,-71.41909 c -0.25768,-78.52247 -0.47815,-75.10516 5.02914,-77.95309 3.57089,-1.84658 5.18454,-1.66417 5.68717,0.6429 0.23644,1.08529 3.62258,22.66461 7.52475,47.95405 3.90217,25.28945 7.45443,46.65269 7.89391,47.47386 0.43948,0.82117 1.43426,1.73679 2.21063,2.03472 0.77638,0.29792 18.50278,0.54167 39.39203,0.54167 34.88883,0 38.12966,-0.12492 39.8136,-1.53474 1.61604,-1.35296 2.7442,-7.27372 9.52487,-49.98823 7.35345,-46.32273 7.77326,-48.45353 9.54666,-48.45403 2.60663,-8.7e-4 6.46796,3.27282 7.89827,6.69601 0.99281,2.37613 1.20921,15.22495 1.20921,71.79459 0,74.95814 0.13169,72.91605 -4.92307,76.33865 -2.44403,1.65484 -4.57449,1.71925 -61.72862,1.86619 -33.10509,0.0851 -60.37818,-0.19633 -61.87654,-0.63853 z"
             id="path17085"
             inkscape:connector-curvature="0"
             inkscape:export-xdpi="90"
             inkscape:export-ydpi="90" />
        </g>
      </g>
      <g
         id="g3534" />
      <g
         id="g3536" />
      <g
         id="g3538" />
      <g
         id="g3540" />
      <g
         id="g3542" />
      <g
         id="g3544" />
      <g
         id="g3546" />
      <g
         id="g3548" />
      <g
         id="g3550" />
      <g
         id="g3552" />
      <g
         id="g3554" />
      <g
         id="g3556" />
      <g
         id="g3558" />
      <g
         id="g3560" />
      <g
         id="g3562" />
    </g>
  </g>
</svg>
