<?xml version="1.0" encoding="UTF-8" standalone="no"?>
<!-- Created with Inkscape (http://www.inkscape.org/) -->

<svg
   xmlns:dc="http://purl.org/dc/elements/1.1/"
   xmlns:cc="http://creativecommons.org/ns#"
   xmlns:rdf="http://www.w3.org/1999/02/22-rdf-syntax-ns#"
   xmlns:svg="http://www.w3.org/2000/svg"
   xmlns="http://www.w3.org/2000/svg"
   xmlns:sodipodi="http://sodipodi.sourceforge.net/DTD/sodipodi-0.dtd"
   xmlns:inkscape="http://www.inkscape.org/namespaces/inkscape"
   width="84.338089mm"
   height="84.306793mm"
   viewBox="0 0 298.83575 298.72486"
   id="svg17108"
   version="1.1"
   inkscape:version="0.91 r13725"
   sodipodi:docname="subway-explorer-log-new-icon.svg"
   inkscape:export-filename="/home/alex/Desktop/subway-explorer-webapp/static/subway-explorer-log-new-icon.png"
   inkscape:export-xdpi="15.06403"
   inkscape:export-ydpi="15.06403">
  <defs
     id="defs17110" />
  <sodipodi:namedview
     id="base"
     pagecolor="#ffffff"
     bordercolor="#666666"
     borderopacity="1.0"
     inkscape:pageopacity="0.0"
     inkscape:pageshadow="2"
     inkscape:zoom="0.35"
     inkscape:cx="-21.296415"
     inkscape:cy="400.79101"
     inkscape:document-units="px"
     inkscape:current-layer="layer1"
     showgrid="false"
     fit-margin-top="0"
     fit-margin-left="0"
     fit-margin-right="0"
     fit-margin-bottom="0"
     inkscape:window-width="1855"
     inkscape:window-height="1056"
     inkscape:window-x="1985"
     inkscape:window-y="24"
     inkscape:window-maximized="1" />
  <metadata
     id="metadata17113">
    <rdf:RDF>
      <cc:Work
         rdf:about="">
        <dc:format>image/svg+xml</dc:format>
        <dc:type
           rdf:resource="http://purl.org/dc/dcmitype/StillImage" />
        <dc:title></dc:title>
      </cc:Work>
    </rdf:RDF>
  </metadata>
  <g
     inkscape:label="Layer 1"
     inkscape:groupmode="layer"
     id="layer1"
     transform="translate(-396.29642,-634.42835)">
    <path
       id="path3526"
       d="m 613.91125,690.63442 0,0 -137.02525,0 c -13.5311,0 -24.55189,11.2657 -24.55189,25.0417 l 0,162.00574 c 0,13.34741 11.2657,24.55185 24.55189,24.55185 l 8.14315,0 -12.91883,21.6743 c -1.71435,2.87762 -0.79594,6.67363 2.14293,8.38797 0.97963,0.61234 2.08171,0.85723 3.12256,0.85723 2.08171,0 4.10219,-1.04084 5.2655,-3.00006 l 16.65364,-27.91944 92.69715,0 16.65365,27.91944 c 1.16332,1.89794 3.18379,3.00006 5.2655,3.00006 1.04085,0 2.14293,-0.30617 3.12256,-0.85723 2.87765,-1.71434 3.85728,-5.51035 2.14294,-8.38797 l -12.91883,-21.6743 7.65333,0 c 13.83723,0 25.0417,-11.02076 25.0417,-24.55185 l 0,-161.94452 c 0,-13.83722 -11.20447,-25.10292 -25.0417,-25.10292 z m -13.16373,12.24532 -110.26921,0 z m -16.95978,106.41194 -76.717,0 z m 42.91988,68.45141 c 0,6.6737 -5.87776,12.30655 -12.79637,12.30655 l -137.02525,0 c -6.55125,0 -12.30656,-5.7553 -12.30656,-12.30655 l 0,-162.00575 c 0,-6.97983 5.63285,-12.79636 12.30656,-12.79636 l 1.22453,0 17.63328,113.45299 c 0.48981,3.00011 3.06133,5.20426 6.06143,5.20426 l 87.18676,0 c 3.0001,0 5.57162,-2.20415 6.06144,-5.14302 l 18.12308,-113.51423 0.73473,0 c 7.04107,0 12.79637,5.75529 12.79637,12.79636 z"
       inkscape:connector-curvature="0"
       style="fill:#000000;fill-opacity:1"
       sodipodi:nodetypes="ccsssscccsccccscccssscccccccssssssccssccsss"
       inkscape:export-xdpi="90"
       inkscape:export-ydpi="90" />
    <path
       id="path3528"
       d="m 694.54676,771.02502 c -3.30624,-37.28704 -20.38848,-71.81887 -48.0017,-97.22794 -27.42955,-25.34784 -63.18591,-39.36873 -100.65663,-39.36873 -37.53193,0 -73.34953,13.95967 -101.02397,39.36873 -27.67445,25.40907 -44.69547,59.9409 -48.0017,97.28917 -3.24501,37.34826 7.53087,74.26793 30.36842,103.90164 2.02047,2.69397 5.87776,3.18379 8.57173,1.10208 2.69397,-2.02049 3.18378,-5.87777 1.10208,-8.57173 -43.71583,-56.69589 -36.736,-136.10687 16.22506,-184.72084 52.16511,-47.87924 133.41289,-47.87924 185.08819,0 52.89983,48.67519 59.87966,128.08617 16.22506,184.72084 -2.08171,2.63274 -1.5919,6.49002 1.10208,8.57173 1.10208,0.85717 2.44906,1.28576 3.73482,1.28576 1.8368,0 3.61237,-0.79595 4.89813,-2.44907 22.89878,-29.6337 33.67467,-66.55337 30.36843,-103.90164 z"
       inkscape:connector-curvature="0"
       style="fill:#0039a6;fill-opacity:1"
       inkscape:export-xdpi="90"
       inkscape:export-ydpi="90" />
    <path
       style="opacity:1;fill:#ffffff;fill-opacity:1;stroke:#ffffff;stroke-width:4.12430286;stroke-miterlimit:4;stroke-dasharray:none"
       d="m 473.9011,888.92097 c -1.75011,-0.5165 -4.32793,-2.15872 -5.72848,-3.64938 l -2.54648,-2.71028 -0.27834,-84.81922 c -0.30603,-93.25538 -0.56786,-89.19689 5.97274,-92.57917 4.24088,-2.19305 6.1573,-1.97642 6.75423,0.76352 0.28081,1.28892 4.30228,26.9171 8.9366,56.95152 4.63432,30.03442 8.85308,55.40598 9.37501,56.38122 0.52194,0.97524 1.70337,2.06266 2.62541,2.41649 0.92205,0.35382 21.97439,0.6433 46.78302,0.6433 41.43491,0 45.28381,-0.14836 47.2837,-1.8227 1.91925,-1.60681 3.25908,-8.63846 11.31199,-59.36736 8.73315,-55.01411 9.23173,-57.5447 11.33787,-57.5453 3.0957,-10e-4 7.68152,3.88689 9.38019,7.95236 1.17909,2.82196 1.43609,18.08156 1.43609,85.26518 0,89.02229 0.1564,86.59705 -5.84677,90.66182 -2.90259,1.96533 -5.43278,2.04182 -73.31055,2.21633 -39.31649,0.10107 -71.70674,-0.23316 -73.48623,-0.75833 z"
       id="path17085"
       inkscape:connector-curvature="0"
       inkscape:export-xdpi="90"
       inkscape:export-ydpi="90" />
  </g>
</svg>
